<svg xmlns="http://www.w3.org/2000/svg" viewBox="0 0 529.77 159"><defs><style>.a{fill:#600;}</style></defs><title>fomologo</title><path class="a" d="M108.48,48.1q0,7.14-6.43,7.14H19.63V88.81q0,6.12-6,6.12c-4.29,0-6.78-.18-7.45-.54q-3.72-1.17-3.72-5.58V22.52Q2.42,11.2,17,5.15A63.09,63.09,0,0,1,41.5.5H54.37q6.12,0,6.12,7.91,0,6.12-6.12,6.12-34.74,0-34.74,8.61V41.05h82.42Q108.49,41.05,108.48,48.1Z" transform="translate(-0.12 -0.5)"/><path class="a" d="M230.83,69.58q0,25.35-43.8,25.35H160.2q-17.74,0-28-4.49-15.66-6.36-15.66-20.78V26.09Q116.55.5,160.2.5H187q20.39,0,28.76,3.57,15,5.81,15,22Zm-17.21-.39V26.47q0-11.94-26.15-11.94H160.15q-26.39,0-26.38,11.94V69.19q0,11.55,26.38,11.55h27.4Q213.62,80.74,213.62,69.19Z" transform="translate(-0.12 -0.5)"/><path class="a" d="M399.67,88.81c0,3-1.25,4.88-3.73,5.66a34.86,34.86,0,0,1-7.44.46q-6,0-6.05-6.12V27.71L331.67,90.36a14.61,14.61,0,0,1-21.94,0L258,27.4V88.81q0,6.12-6,6.12t-7.44-.46c-2.49-.78-3.73-2.66-3.73-5.66V9.57q0-8.76,9.62-8.76a12.55,12.55,0,0,1,10.08,4.5L321,76.87,380.05,5.23a12.06,12.06,0,0,1,9.77-4.5q9.84,0,9.85,9.54Z" transform="translate(-0.12 -0.5)"/><path class="a" d="M523.82,69.58q0,25.35-43.8,25.35H453.19q-17.76,0-28-4.49-15.66-6.36-15.66-20.78V26.09Q409.54.5,453.19.5H480q20.39,0,28.76,3.57,15,5.81,15,22Zm-17.21-.39V26.47q0-11.94-26.15-11.94H453.14q-26.38,0-26.39,11.94V69.19q0,11.55,26.39,11.55h27.39Q506.62,80.74,506.61,69.19Z" transform="translate(-0.12 -0.5)"/><path class="a" d="M68.42,156a2.27,2.27,0,0,1-1.6,2.44,15.16,15.16,0,0,1-3.2.2A2.32,2.32,0,0,1,61,156V129.76L39.19,156.7a5.76,5.76,0,0,1-4.71,2.13,5.77,5.77,0,0,1-4.73-2.13L7.52,129.63V156a2.32,2.32,0,0,1-2.6,2.64,14.82,14.82,0,0,1-3.2-.2A2.27,2.27,0,0,1,.12,156V122c0-2.51,1.37-3.76,4.13-3.76a5.38,5.38,0,0,1,4.33,1.93l26,30.77L60,120.1a5.17,5.17,0,0,1,4.2-1.94q4.23,0,4.23,4.1Z" transform="translate(-0.12 -0.5)"/><path class="a" d="M129.08,155.9a3.53,3.53,0,0,1-1,2.57,3.49,3.49,0,0,1-2.57,1,4,4,0,0,1-3.47-2L115.44,148H84.24l-6.56,9.53a3,3,0,0,1-2.3,1.57,4,4,0,0,1-2.37-.8,2.47,2.47,0,0,1-1.27-2,1.19,1.19,0,0,1,.2-.66l23.4-35.77c1-1.47,2.6-2.2,4.94-2.2,1.73,0,2.89.49,3.46,1.46a1.54,1.54,0,0,1,.15.29c.06.12.14.27.25.45L129,154.9A2.58,2.58,0,0,1,129.08,155.9Zm-18-14L99.88,125.3l-11.3,16.57Z" transform="translate(-0.12 -0.5)"/><path class="a" d="M177.85,148.6a10.43,10.43,0,0,1-1,5.1q-2.76,5-16.73,5H134.44c-1.71,0-2.56-.88-2.56-2.64a5.45,5.45,0,0,1,.4-2.5,2.3,2.3,0,0,1,2.16-1h25.64q10.36,0,10.37-3.84v-3.5q0-3.73-10-4.06l-12.3-.4-2.45-.12c-1-.06-2.35-.14-3.88-.25a13.83,13.83,0,0,1-6.87-2.63,7.56,7.56,0,0,1-3.13-6.31V128.4q0-7.11,7.86-9.37,3.78-1,13.81-1c1.73,0,2.6,1.14,2.6,3.4a2.28,2.28,0,0,1-1.57,2.47,16.85,16.85,0,0,1-3.17.13q-12.13,0-12.13,4.27v2.83q0,2.64,4.53,3.44a20.68,20.68,0,0,0,2.52.25c1.1.05,2.45.08,4.05.08h9.9q7.09,0,11.2,1.83,6.47,2.67,6.47,8.21Z" transform="translate(-0.12 -0.5)"/><path class="a" d="M216.93,121.46a2.31,2.31,0,0,1-2.6,2.64H197.9V156a2.31,2.31,0,0,1-2.58,2.64,15.35,15.35,0,0,1-3.25-.2A2.24,2.24,0,0,1,190.5,156V124.1H174.2a2.33,2.33,0,0,1-2.64-2.64A5.3,5.3,0,0,1,172,119a2.37,2.37,0,0,1,2.24-.94h40.13C216.07,118.06,216.93,119.2,216.93,121.46Z" transform="translate(-0.12 -0.5)"/><path class="a" d="M264.55,138.36q0,3.24-2.76,3.24H226.15v6.67q0,4.29,9.5,4.3h26.14a2.31,2.31,0,0,1,2.6,2.63q0,3.47-2.6,3.47H235.32a26.78,26.78,0,0,1-10.64-2.07q-5.93-2.7-5.93-8.07V128.4a8,8,0,0,1,2-5.27q4.26-5.07,15.23-5.07h7.24c1.71,0,2.56,1.14,2.56,3.4,0,1.76-.85,2.64-2.56,2.64h-2.1a1,1,0,0,1-.41,0l-1.43,0h-1q-12.17,0-12.17,4.4v7.1h35.74C263.64,135.5,264.55,136.45,264.55,138.36Z" transform="translate(-0.12 -0.5)"/><path class="a" d="M318,133.23q0,5.51-5.8,8a28.13,28.13,0,0,1-10.6,1.86h-12.2l24.73,10.5a2.79,2.79,0,0,1,2,2.57q0,2.51-4.37,2.5a10.9,10.9,0,0,1-2.73-.27L275.27,144v12a2.32,2.32,0,0,1-2.6,2.64,10.88,10.88,0,0,1-3.2-.24,2.23,2.23,0,0,1-1.6-2.4V120.66a2.3,2.3,0,0,1,2.6-2.6h29.8a30.82,30.82,0,0,1,11.4,1.8q6.38,2.58,6.37,8.47Zm-7.4.07v-5.14q0-4.06-10.4-4.06h-25v13h26.3Q310.63,137.1,310.64,133.3Z" transform="translate(-0.12 -0.5)"/><path class="a" d="M372.22,154.3q0,4.63-4.07,4.63a7,7,0,0,1-4.23-2L329.35,127.6V156a2.28,2.28,0,0,1-1.6,2.47c-.31,0-.73.08-1.27.12s-1.18,0-1.93,0A2.32,2.32,0,0,1,322,156V122.16q0-4.39,3.8-4.4a7.8,7.8,0,0,1,4.94,2.14l34.13,29V120.66a2.26,2.26,0,0,1,1.59-2.43q.46-.06,1.26-.12c.53,0,1.18,0,1.93,0a2.31,2.31,0,0,1,2.62,2.6Z" transform="translate(-0.12 -0.5)"/><path class="a" d="M425.65,147.77q0,10.89-18.83,10.9H395.29q-7.64,0-12-1.94-6.74-2.73-6.73-8.93V129.06q0-11,18.77-11h11.53q8.76,0,12.37,1.54,6.46,2.49,6.46,9.46Zm-7.4-.17V129.23q0-5.13-11.24-5.13H395.26q-11.34,0-11.34,5.13V147.6q0,5,11.34,5H407Q418.26,152.57,418.25,147.6Z" transform="translate(-0.12 -0.5)"/><path class="a" d="M480.52,147.7q0,5.73-5.76,8.7a23.93,23.93,0,0,1-10.9,2.27H432.52a2.32,2.32,0,0,1-2.6-2.64V120.66a2.3,2.3,0,0,1,2.6-2.6H464q16.5,0,16.5,10.34Zm-7.33,0V128.43c0-1.58-1.2-2.75-3.6-3.53a19.12,19.12,0,0,0-5.77-.8h-26.5v28.47h26.37a17.49,17.49,0,0,0,5.93-.9Q473.19,150.39,473.19,147.67Z" transform="translate(-0.12 -0.5)"/><path class="a" d="M529.88,138.36q0,3.24-2.76,3.24H491.48v6.67q0,4.29,9.5,4.3h26.14a2.31,2.31,0,0,1,2.6,2.63q0,3.47-2.6,3.47H500.65A26.7,26.7,0,0,1,490,156.6q-5.94-2.7-5.94-8.07V128.4a8,8,0,0,1,2-5.27q4.26-5.07,15.23-5.07h7.24c1.71,0,2.56,1.14,2.56,3.4,0,1.76-.85,2.64-2.56,2.64h-2.1c-.25,0-.38,0-.4,0l-1.44,0h-1q-12.16,0-12.16,4.4v7.1h35.73C529,135.5,529.88,136.45,529.88,138.36Z" transform="translate(-0.12 -0.5)"/></svg>